<?xml version="1.0" encoding="UTF-8"?>
<svg width="1000px" height="1000px" viewBox="0 0 1000 1000" version="1.1" xmlns="http://www.w3.org/2000/svg" xmlns:xlink="http://www.w3.org/1999/xlink">
    <title>Group 2</title>
    <defs>
        <radialGradient cx="79%" cy="91.0435657%" fx="79%" fy="91.0435657%" r="68.8036193%" gradientTransform="translate(0.79, 0.9104), scale(0.9145, 1), rotate(-90), translate(-0.79, -0.9104)" id="radialGradient-1">
            <stop stop-color="#09DBFF" offset="0%"></stop>
            <stop stop-color="#0994F0" offset="100%"></stop>
        </radialGradient>
        <radialGradient cx="77.4808458%" cy="19.0138539%" fx="77.4808458%" fy="19.0138539%" r="123.024559%" gradientTransform="translate(0.7748, 0.1901), scale(0.4867, 1), rotate(-90), translate(-0.7748, -0.1901)" id="radialGradient-2">
            <stop stop-color="#09DBFF" offset="0%"></stop>
            <stop stop-color="#0994F0" offset="100%"></stop>
        </radialGradient>
        <radialGradient cx="66.4313974%" cy="6.46386347%" fx="66.4313974%" fy="6.46386347%" r="61.636238%" gradientTransform="translate(0.6643, 0.0646), scale(1, 0.8679), rotate(150), translate(-0.6643, -0.0646)" id="radialGradient-3">
            <stop stop-color="#00D89D" offset="0%"></stop>
            <stop stop-color="#00A99D" offset="50.1%"></stop>
            <stop stop-color="#006787" offset="100%"></stop>
        </radialGradient>
        <radialGradient cx="9.14675198%" cy="35.2609297%" fx="9.14675198%" fy="35.2609297%" r="122.108938%" gradientTransform="translate(0.0915, 0.3526), scale(1, 0.4427), rotate(149.9998), translate(-0.0915, -0.3526)" id="radialGradient-4">
            <stop stop-color="#00D89D" offset="0%"></stop>
            <stop stop-color="#00A99D" offset="50.1%"></stop>
            <stop stop-color="#006787" offset="100%"></stop>
        </radialGradient>
        <radialGradient cx="2.59216537%" cy="53.2215504%" fx="2.59216537%" fy="53.2215504%" r="65.4464031%" gradientTransform="translate(0.0259, 0.5322), scale(0.8392, 1), rotate(30), translate(-0.0259, -0.5322)" id="radialGradient-5">
            <stop stop-color="#FFC230" offset="0%"></stop>
            <stop stop-color="#F9A228" offset="49.9%"></stop>
            <stop stop-color="#E66E00" offset="100%"></stop>
        </radialGradient>
        <radialGradient cx="49.2084582%" cy="87.6926397%" fx="49.2084582%" fy="87.6926397%" r="53.8144524%" gradientTransform="translate(0.4921, 0.8769), scale(0.8198, 1), rotate(29.9999), translate(-0.4921, -0.8769)" id="radialGradient-6">
            <stop stop-color="#FFC230" offset="0%"></stop>
            <stop stop-color="#F9A228" offset="49.9%"></stop>
            <stop stop-color="#E66E00" offset="100%"></stop>
        </radialGradient>
    </defs>
    <g id="Page-1" stroke="none" stroke-width="1" fill="none" fill-rule="evenodd">
        <g id="Group-2">
            <polygon id="Artboard-1-copy" fill="#FFFFFF" fill-rule="nonzero" points="0 1000 1000 1000 1000 0 0 0"></polygon>
            <g id="&lt;Group&gt;" transform="translate(165.1, 762.1)" fill="#001F79">
                <g transform="translate(2, 0)" id="&lt;Compound-Path&gt;">
                    <path d="M40.1,42.5 C40.1,54.1 32.1,62.9 20.1,62.9 C8.3,62.9 2.84217094e-14,54 2.84217094e-14,42.2 C2.84217094e-14,30.1 8.6,21.6 20.1,21.6 C31.7,21.6 40.1,30.3 40.1,42.5 L40.1,42.5 Z M16.6,13.8 L7.3,13.8 L7.3,4.5 L16.6,4.5 L16.6,13.8 Z M30.4,42.4 C30.4,35.3 26.2,30 19.8,30 C13.5,30 9.8,35.1 9.8,42 C9.8,49 14.3,54.3 20.4,54.3 C26.5,54.3 30.4,49.3 30.4,42.4 L30.4,42.4 Z M32.6,13.8 L23.3,13.8 L23.3,4.4 L32.6,4.4 L32.6,13.8 Z"></path>
                    <path d="M102.3,62.9 L47.4,62.9 L47.4,53.3 L78,53.3 C78,42.2 73.7,35.8 65.2,34 C62.6,33.4 59.7,33.2 56.6,33.2 L56.6,24.6 C61.3,24.6 64.3,24.7 65.4,24.7 C66.6,24.8 68.3,25.2 70.5,25.9 C81.8,29.7 87.5,38.9 87.6,53.3 L102.3,53.3 L102.3,62.9 Z" fill-rule="nonzero"></path>
                    <polygon fill-rule="nonzero" points="117 62.9 98.3 62.9 98.3 53.3 117 53.3"></polygon>
                    <polygon fill-rule="nonzero" points="133.7 62.9 115 62.9 115 53.3 133.7 53.3"></polygon>
                    <path d="M199.5,62.9 L131.7,62.9 L131.7,53.3 L180.5,53.3 C180.5,48.1 179.1,43.6 176.1,39.9 C172.7,35.6 167.8,33.5 161.6,33.5 C159.5,33.5 157.1,34 154.5,35.1 C151.433333,36.3666667 148.9,38.1333333 146.9,40.4 C146,38.6 144.4,36.2 142.3,32.9 C145,30.5 147.9,28.5 151.4,26.9 C155.1,25.3 158.8,24.6 162.5,24.6 C168.4,24.6 173.5,25.9 177.9,28.6 C185.6,33.4 189.8,41.6 190.6,53.3 L199.5,53.3 L199.5,62.9 Z" fill-rule="nonzero"></path>
                    <path d="M205.9,16.7 L196.6,16.7 L196.6,7.3 L205.9,7.3 L205.9,16.7 Z M236.1,63 L197.1,63 L197.1,53.3 L205.9,53.3 C208.7,53.3 210.5,52.4 211.5,50.5 C212.2,49.2 212.6,47 212.6,44 L212.6,24.6 L221.9,24.6 L221.9,43.5 C221.9,48.5 221.3,51.7 219.9,53.3 L236.1,53.3 L236.1,63 Z M221.9,16.8 L212.6,16.8 L212.6,7.4 L221.9,7.4 L221.9,16.8 Z" fill-rule="nonzero"></path>
                    <path d="M288.8,62.9 L276.7,62.9 C273.1,67.8 268,70.3 261.4,70.3 C254.9,70.3 249.9,67.8 246.3,62.9 L233.3,62.9 L233.3,53.3 L242.5,53.3 C242.4,52.4 242.4,51.5 242.4,50.5 C242.4,44.9 244.2,40.2 247.6,36.6 C251.2,32.9 255.7,31.1 261.4,31.1 C267.1,31.1 271.6,32.9 275.1,36.7 C278.6,40.5 280.3,45.2 280.3,50.9 L280.3,53.3 L288.8,53.3 L288.8,62.9 Z M270.6,50.7 C270.6,47.8 269.9,45.2 268.3,43.1 C266.6,40.8 264.1,39.6 261.2,39.6 C258.3,39.6 256,40.7 254.3,43 C252.9,44.9 252.1,47.4 252.1,50.4 C252.1,56.5 255.8,61.5 261.7,61.5 C264.5,61.5 266.8,60.4 268.4,58.3 C269.9,56.3 270.6,53.8 270.6,50.7 L270.6,50.7 Z"></path>
                    <path d="M310,47.6 C310,57.9 305.3,62.9 295.8,62.9 L285.8,62.9 L285.8,53.3 L293.9,53.3 C297,53.3 298.9,52.4 299.9,50.5 C300.3,49.5 300.5,47.5 300.5,44.4 L300.5,8.4 L310,8.4 L310,47.6 Z" fill-rule="nonzero"></path>
                    <polygon fill-rule="nonzero" points="328.1 62.9 318.7 62.9 318.7 8.4 328.1 8.4"></polygon>
                    <path d="M407.6,62.9 L397.4,62.9 C390,62.9 384,58 382.1,50.4 C379.1,54.7 375.5,56.8 371.3,56.8 C360.4,56.8 353.8,48.7 353.8,36.9 C353.8,24.2 360.4,16.4 371.3,16.4 L392.1,16.4 L392.1,43.2 C392.1,49.8 395.3,53.3 401.6,53.3 L407.6,53.3 L407.6,62.9 Z M382.3,36 L382.3,23.7 L373.8,23.7 C367.2,23.7 363.2,28.9 363.2,36.8 C363.2,43.3 366.8,48.9 372.4,48.9 C378.6,48.9 382.3,43.1 382.3,36 L382.3,36 Z M375.4,9.5 L366.1,9.5 L366.1,0 L375.4,0 L375.4,9.5 Z M391.4,9.5 L382.1,9.5 L382.1,0.1 L391.4,0.1 L391.4,9.5 Z"></path>
                    <polygon fill-rule="nonzero" points="423.9 62.9 405.2 62.9 405.2 53.3 423.9 53.3"></polygon>
                    <polygon fill-rule="nonzero" points="440.6 62.9 422 62.9 422 53.3 440.6 53.3"></polygon>
                    <path d="M447.3,81.5 L438,81.5 L438,72 L447.3,72 L447.3,81.5 Z M477.4,63 L438.4,63 L438.4,53.3 L447.5,53.3 C450.3,53.3 452.2,52.4 453.2,50.5 C453.9,49.2 454.3,47 454.3,44 L454.3,24.6 L463.6,24.6 L463.6,43.5 C463.6,48.5 463,51.7 461.5,53.3 L477.4,53.3 L477.4,63 Z M463.3,81.6 L454,81.6 L454,72.1 L463.3,72.1 L463.3,81.6 Z" fill-rule="nonzero"></path>
                    <path d="M499.1,47.6 C499.1,57.9 494.4,62.9 484.9,62.9 L475,62.9 L475,53.3 L483,53.3 C486.1,53.3 488.1,52.4 489,50.5 C489.4,49.5 489.7,47.5 489.7,44.4 L489.7,8.4 L499.1,8.4 L499.1,47.6 Z" fill-rule="nonzero"></path>
                    <path d="M561.9,62.9 L507.1,62.9 L507.1,53.3 L537.7,53.3 C537.7,42.2 533.4,35.8 524.8,34 C522.2,33.4 519.3,33.2 516.3,33.2 L516.3,24.6 C520.9,24.6 523.9,24.7 525.1,24.7 C526.3,24.8 527.9,25.2 530.1,25.9 C541.5,29.7 547.1,38.9 547.2,53.3 L561.9,53.3 L561.9,62.9 Z" fill-rule="nonzero"></path>
                    <path d="M566.6,81.5 L557.3,81.5 L557.3,72 L566.6,72 L566.6,81.5 Z M596.6,63 L557.7,63 L557.7,53.3 L566.7,53.3 C569.5,53.3 571.5,52.4 572.5,50.5 C573.2,49.2 573.5,47 573.5,44 L573.5,24.6 L582.9,24.6 L582.9,43.5 C582.9,48.5 582.2,51.7 580.8,53.3 L596.6,53.3 L596.6,63 Z M582.5,81.6 L573.2,81.6 L573.2,72.1 L582.5,72.1 L582.5,81.6 Z" fill-rule="nonzero"></path>
                    <path d="M665.4,62.9 L594.6,62.9 L594.6,53.3 L601.5,53.3 C606.4,53.3 608.7,50 608.7,43.3 L608.7,28.6 L618.2,28.6 L618.2,40.2 C625.5,30.1 634.9,24.4 644,24.4 C658.5,24.4 665.8,34.4 665.8,54.2 C665.8,56.9 665.6,59.8 665.4,62.9 Z M656,53.3 L656.1,50.6 C656.1,39.7 651.1,32.9 643,32.9 C633.6,32.9 623.5,41.6 618.3,53.3 L656,53.3 Z"></path>
                </g>
                <g transform="translate(0, 108.2)" id="&lt;Compound-Path&gt;">
                    <g transform="translate(0, -0)">
                        <path d="M2.84217094e-14,5.8 L2.84217094e-14,3.1 C5.8,3.3 10,3.4 12.6,3.4 C15.3333333,3.4 19.4,3.3 24.8,3.1 L24.8,5.8 L21.7,5.8 C19.0333333,5.8 17.4333333,6.3 16.9,7.3 C16.3666667,8.3 16.1,12.9 16.1,21.1 L16.1,37.6 C16.1,43.6666667 16.4333333,47.8666667 17.1,50.2 C17.7666667,52.6 19.4666667,54.6 22.2,56.2 C25,57.8666667 28.7,58.7 33.3,58.7 C38.0333333,58.7 42.0333333,57.8333333 45.3,56.1 C47.5666667,54.9 49.2333333,53 50.3,50.4 C51.3,47.8666667 51.8,43.0333333 51.8,35.9 L51.8,20 C51.8,12.6 51.4666667,8.36666667 50.8,7.3 C50.2,6.3 48.4,5.8 45.4,5.8 L43.2,5.8 L43.2,3.1 C49,3.3 52.7,3.4 54.3,3.4 C56.9,3.4 60.1,3.3 63.9,3.1 L63.9,5.8 L61,5.8 C58.7333333,5.8 57.3,6.4 56.7,7.6 C56.0333333,8.8 55.7,13 55.7,20.2 L55.7,36 C55.7,43.2666667 55.3333333,48.1333333 54.6,50.6 C53.9333333,53.1333333 52.6333333,55.4333333 50.7,57.5 C48.8333333,59.5 46.3,61.1 43.1,62.3 C39.9666667,63.5 36.2333333,64.1 31.9,64.1 C27.5,64.1 23.6333333,63.5666667 20.3,62.5 C16.9666667,61.4333333 14.4666667,60.1333333 12.8,58.6 C11.1333333,57 9.93333333,55.1 9.2,52.9 C8.46666667,50.6333333 8.1,46.8333333 8.1,41.5 L8.2,33.4 L8.2,20.5 C8.2,12.5666667 7.96666667,8.13333333 7.5,7.2 C7.03333333,6.26666667 5.53333333,5.8 3,5.8 L2.84217094e-14,5.8 Z" fill-rule="nonzero"></path>
                        <path d="M80.9,30.4 L87.3,24.8 C88.0333333,24.1333333 88.8333333,23.6333333 89.7,23.3 C91.5666667,22.7 93.4333333,22.4 95.3,22.4 C98.3,22.4 100.9,23 103.1,24.2 C105.3,25.4 106.9,27 107.9,29 C108.833333,30.9333333 109.3,34 109.3,38.2 L109.1,51.5 C109.1,56.1 109.3,58.7333333 109.7,59.4 C110.233333,60.3333333 111.266667,60.8 112.8,60.8 L115.8,60.8 L115.8,63.2 C112.8,63 110.2,62.9 108,62.9 C105.866667,62.9 103.6,63 101.2,63.2 C101.733333,57.7333333 102,50.3333333 102,41 C102,37.2 101.666667,34.5 101,32.9 C100.333333,31.3666667 99.2,30.1 97.6,29.1 C96.0666667,28.1666667 94.2,27.7 92,27.7 C89.2666667,27.7 86.9333333,28.4 85,29.8 C83.1333333,31.1333333 81.9666667,32.6333333 81.5,34.3 C81.2333333,35.4333333 81.1,38.3 81.1,42.9 C81.1,48.1 81.1333333,52.9 81.2,57.3 C81.2,58.6333333 81.4,59.4666667 81.8,59.8 C82.5333333,60.4666667 83.7,60.8 85.3,60.8 L88.3,60.8 L88.3,63.2 C83.5,63 79.7,62.9 76.9,62.9 C73.9,62.9 70.5,63 66.7,63.2 L66.7,60.8 L69.8,60.8 C71.8666667,60.8 73.0666667,60.3 73.4,59.3 C73.7333333,58.3666667 73.9,52.5333333 73.9,41.8 C73.9,37 73.8666667,33.2333333 73.8,30.5 C73.7333333,29.5666667 73.5,28.9333333 73.1,28.6 C72.7,28.2666667 71.6,28.1 69.8,28.1 L66.7,28.1 L66.7,25.7 C69.1,25.3666667 71.2666667,24.9666667 73.2,24.5 C75.1333333,24.0333333 77.2666667,23.3 79.6,22.3 C79.8666667,22.2333333 80.1333333,22.2 80.4,22.2 C80.8,22.2 81,22.5 81,23.1 L81,24.7 L80.9,30.4 Z" fill-rule="nonzero"></path>
                        <path d="M132,22.2 L133,22.8 C132.8,24.9333333 132.7,27.2666667 132.7,29.8 C132.5,38 132.4,44.0666667 132.4,48 C132.4,51.6666667 132.5,54.8 132.7,57.4 C132.833333,58.4 133.1,59.1 133.5,59.5 C133.966667,59.9 135,60.2 136.6,60.4 L139.5,60.8 L139.5,63.2 C135.366667,63 131.6,62.9 128.2,62.9 C124.866667,62.9 121.533333,63 118.2,63.2 L118.2,60.8 L121.8,60.4 C123.2,60.2666667 124.066667,60 124.4,59.6 C124.733333,59.2 124.933333,57.8333333 125,55.5 C125.133333,51.9 125.2,46.9666667 125.2,40.7 C125.2,36.3 125.133333,32.9333333 125,30.6 C124.933333,29.7333333 124.7,29.1 124.3,28.7 C123.833333,28.3666667 122.833333,28.1666667 121.3,28.1 L118.2,28.1 L118.2,25.7 C121.6,25.1666667 124.1,24.7 125.7,24.3 C127.366667,23.9 129.466667,23.2 132,22.2 L132,22.2 Z M128.6,3.5 C129.933333,3.5 131.066667,3.96666667 132,4.9 C132.933333,5.83333333 133.4,6.96666667 133.4,8.3 C133.4,9.63333333 132.933333,10.7666667 132,11.7 C131.066667,12.6333333 129.933333,13.1 128.6,13.1 C127.333333,13.1 126.233333,12.6333333 125.3,11.7 C124.366667,10.7666667 123.9,9.63333333 123.9,8.3 C123.9,6.96666667 124.366667,5.83333333 125.3,4.9 C126.233333,3.96666667 127.333333,3.5 128.6,3.5 Z" fill-rule="nonzero"></path>
                        <path d="M156.9,30 L156.9,46.6 C156.9,50.9333333 157.033333,53.7 157.3,54.9 C157.633333,56.1 158.2,57.0333333 159,57.7 C159.866667,58.3666667 160.966667,58.7 162.3,58.7 C163.1,58.7 163.9,58.5666667 164.7,58.3 C165.5,57.9666667 166.266667,57.4666667 167,56.8 L168.2,58.3 L164.1,63.1 C163.233333,63.4333333 162.366667,63.6666667 161.5,63.8 C160.633333,64 159.8,64.1 159,64.1 C156.933333,64.1 155.166667,63.7 153.7,62.9 C152.3,62.1666667 151.266667,61.2 150.6,60 C149.933333,58.8 149.6,57 149.6,54.6 L149.8,46.4 L149.8,30.4 C147.6,30.4 145.333333,30.5 143,30.7 L143,28.9 C145.466667,27.9666667 147.733333,27 149.8,26 C149.733333,21.9333333 149.6,17.5666667 149.4,12.9 C152.733333,11.5 155.1,10.3666667 156.5,9.5 L157.6,10.4 C157.4,12.6 157.166667,17.8 156.9,26 C160.366667,26 163.166667,25.9333333 165.3,25.8 L168.7,25.7 L168.2,30 L166.5,30 L158.4,30 L156.9,30 Z" fill-rule="nonzero"></path>
                        <path d="M179.9,42.8 C180.033333,48.3333333 181.466667,52.5333333 184.2,55.4 C186.866667,58.2666667 190.4,59.7 194.8,59.7 C196.733333,59.7 198.666667,59.3666667 200.6,58.7 C202.6,58.1 204.533333,57.1333333 206.4,55.8 L207.1,56.5 L205.8,60 C203.466667,61.3333333 201.066667,62.3333333 198.6,63 C196.066667,63.7333333 193.5,64.1 190.9,64.1 C185.166667,64.1 180.566667,62.2666667 177.1,58.6 C173.566667,55 171.8,50.1 171.8,43.9 C171.8,39.1666667 172.8,35.0666667 174.8,31.6 C176.066667,29.3333333 178.466667,27.2333333 182,25.3 C185.466667,23.3666667 188.833333,22.4 192.1,22.4 C197.1,22.4 201.066667,23.8666667 204,26.8 C206.933333,29.7333333 208.4,33.8333333 208.4,39.1 L208.3,41.5 C206.433333,41.9666667 204.666667,42.2666667 203,42.4 C200,42.6666667 195.8,42.8 190.4,42.8 L179.9,42.8 Z M180,39.6 C184.4,39.8 189.233333,39.9 194.5,39.9 C196.566667,39.9 198.6,39.8 200.6,39.6 L200.6,37.2 C200.6,34.7333333 200.1,32.4 199.1,30.2 C198.5,28.8 197.433333,27.6333333 195.9,26.7 C194.3,25.8333333 192.5,25.4 190.5,25.4 C187.366667,25.4 184.833333,26.5333333 182.9,28.8 C181.033333,31.1333333 180.066667,34.7333333 180,39.6 L180,39.6 Z"></path>
                        <path d="M246.9,24.9 L246.9,9.6 C246.9,7.8 246.7,6.7 246.3,6.3 C245.9,5.83333333 245,5.6 243.6,5.6 L240,5.6 L240,3.1 C245,2.76666667 249.666667,1.73333333 254,9.09494702e-13 L254.8,0.5 C254.6,3.36666667 254.433333,6.83333333 254.3,10.9 L254.1,22.1 L254,25.8 L254,51 C254,55.7333333 254.166667,58.3666667 254.5,58.9 C254.9,59.6333333 256.066667,60.1333333 258,60.4 L261,60.8 L261,63.2 C257.533333,62.9333333 254.466667,62.8 251.8,62.8 C251.266667,62.8 249.466667,62.9333333 246.4,63.2 C246.6,61.3333333 246.766667,58.6333333 246.9,55.1 C244.5,56.9666667 241.433333,59.5666667 237.7,62.9 C235.366667,63.7 233.266667,64.1 231.4,64.1 C226.666667,64.1 222.7,62.3 219.5,58.7 C216.3,55.1 214.7,50.3 214.7,44.3 C214.7,40.5666667 215.3,37.3666667 216.5,34.7 C217.766667,32.1 219.233333,30.2 220.9,29 C222.633333,27.8 225.333333,26.2666667 229,24.4 C231.733333,23.0666667 234.3,22.4 236.7,22.4 C238.3,22.4 239.933333,22.6 241.6,23 C243.333333,23.4 245.1,24.0333333 246.9,24.9 L246.9,24.9 Z M246.9,32.2 C244.966667,30.1333333 242.933333,28.5666667 240.8,27.5 C238.733333,26.5 236.566667,26 234.3,26 C230.633333,26 227.666667,27.3333333 225.4,30 C223.133333,32.6666667 222,36.6 222,41.8 C222,47.0666667 223.3,51.2 225.9,54.2 C228.433333,57.2 231.566667,58.7 235.3,58.7 C237.5,58.7 239.566667,58.1 241.5,56.9 C243.366667,55.6333333 244.733333,54 245.6,52 C246.466667,50 246.9,46.8333333 246.9,42.5 L246.9,32.2 Z"></path>
                        <path d="M304.1,7.7 C303.9,11.7666667 303.8,16.1 303.8,20.7 L303.8,44.8 C303.8,53.2666667 304.066667,58 304.6,59 C305.133333,60.0666667 306.8,60.6 309.6,60.6 L312.5,60.6 L312.5,63.2 C307.5,63 303.566667,62.9 300.7,62.9 C298.166667,62.9 293.666667,63 287.2,63.2 L287.2,60.6 L291,60.6 C292.8,60.6 293.966667,60.3666667 294.5,59.9 C294.966667,59.4333333 295.266667,58.5333333 295.4,57.2 C295.533333,55.8666667 295.7,51.8 295.9,45 L295.9,22.4 L295.8,13.7 C295.733333,10.0333333 295.333333,7.8 294.6,7 C293.866667,6.2 292.133333,5.8 289.4,5.8 L287.2,5.8 L287.2,3.1 C290.733333,3.23333333 295.2,3.3 300.6,3.3 C303.8,3.3 307.333333,3.23333333 311.2,3.1 C313.8,2.96666667 315.766667,2.9 317.1,2.9 C323.9,2.9 328.833333,4.13333333 331.9,6.6 C334.966667,9.06666667 336.5,12.4333333 336.5,16.7 C336.5,19.7666667 335.633333,22.7 333.9,25.5 C332.1,28.3666667 329.566667,30.6333333 326.3,32.3 C323.1,34.0333333 319.633333,34.9 315.9,34.9 C314.233333,34.9 312.133333,34.6333333 309.6,34.1 L308.7,30.9 C311.233333,31.5666667 313.333333,31.9 315,31.9 C318.866667,31.9 321.933333,30.7 324.2,28.3 C326.466667,25.9666667 327.6,22.7666667 327.6,18.7 C327.6,14.7666667 326.4,11.7 324,9.5 C321.533333,7.23333333 317.9,6.1 313.1,6.1 C310.366667,6.1 307.366667,6.63333333 304.1,7.7 L304.1,7.7 Z" fill-rule="nonzero"></path>
                        <path d="M352.9,30.4 L358.5,25.5 C359.766667,24.3 361.033333,23.4666667 362.3,23 C363.566667,22.6 365.066667,22.4 366.8,22.4 C369.933333,22.4 372.666667,23 375,24.2 C377.266667,25.4666667 378.833333,27.1 379.7,29.1 C380.633333,31.0333333 381.1,34.3666667 381.1,39.1 L380.8,51.6 C380.8,54.4 380.933333,56.6 381.2,58.2 C381.266667,58.8666667 381.5,59.4 381.9,59.8 C382.233333,60.1333333 383.033333,60.3333333 384.3,60.4 L387.5,60.8 L387.5,63.2 C384.766667,63 382.133333,62.9 379.6,62.9 C377.333333,62.9 375.1,63 372.9,63.2 C373.433333,56.1333333 373.7,49.1666667 373.7,42.3 C373.7,37.7666667 373.4,34.6666667 372.8,33 C372.2,31.4 371.166667,30.1 369.7,29.1 C368.233333,28.1666667 366.333333,27.7 364,27.7 C361.666667,27.7 359.566667,28.2666667 357.7,29.4 C355.766667,30.4666667 354.433333,31.7333333 353.7,33.2 C353.166667,34.2666667 352.9,36.7666667 352.9,40.7 L352.9,48 C352.9,54.7333333 353.066667,58.4333333 353.4,59.1 C353.733333,59.8333333 354.866667,60.2666667 356.8,60.4 L360.5,60.8 L360.5,63.2 C356.1,63 352.566667,62.9 349.9,62.9 C347.1,62.9 343.433333,63 338.9,63.2 L338.9,60.8 L341.6,60.4 C343.266667,60.2 344.3,59.9666667 344.7,59.7 C345.1,59.4333333 345.366667,58.8333333 345.5,57.9 C345.7,56.3666667 345.8,52.9666667 345.8,47.7 L345.8,19.2 C345.8,11.6666667 345.6,7.46666667 345.2,6.6 C345,5.93333333 343.866667,5.6 341.8,5.6 L338.9,5.6 L338.9,3.1 C343.3,2.63333333 346.8,2 349.4,1.2 L352.9,2.27373675e-13 C353.3,2.27373675e-13 353.5,0.3 353.5,0.9 L353.4,2.6 L353.1,10.2 C352.966667,14 352.9,16.9666667 352.9,19.1 L352.9,30.4 Z" fill-rule="nonzero"></path>
                        <path d="M394,33.9 L394,31 L394,28.1 L398.6,25.5 C400.666667,24.3 402.5,23.4666667 404.1,23 C405.633333,22.6 407.3,22.4 409.1,22.4 C412.966667,22.4 416.1,23.2666667 418.5,25 C420.9,26.7333333 422.333333,28.9333333 422.8,31.6 C423.133333,33.6666667 423.333333,38.7 423.4,46.7 C423.466667,54.3 423.633333,58.4666667 423.9,59.2 C424.166667,60 424.866667,60.4 426,60.4 L429.3,60.4 L429.3,63.2 C426.1,63 423.866667,62.9 422.6,62.9 C421,62.9 418.9,63 416.3,63.2 L416.3,59.5 C416.3,58.2333333 416.3,57 416.3,55.8 L407.5,62.5 C406.7,63.0333333 405.933333,63.4333333 405.2,63.7 C404.466667,63.9666667 403.4,64.1 402,64.1 C398.4,64.1 395.633333,63.2 393.7,61.4 C391.766667,59.6 390.8,57.2 390.8,54.2 C390.8,51.3333333 391.5,48.8333333 392.9,46.7 C394.233333,44.6333333 396.166667,43.0666667 398.7,42 C401.233333,41 407.1,39.7 416.3,38.1 C416.233333,34.5 415.433333,31.8333333 413.9,30.1 C411.966667,27.8333333 409.233333,26.7 405.7,26.7 C404.366667,26.7 403.1,26.8666667 401.9,27.2 C400.7,27.5333333 399.6,28.0333333 398.6,28.7 C397.8,30.7 397.066667,32.6333333 396.4,34.5 L394,33.9 Z M416.2,40.6 C408.4,42.2666667 403.433333,43.8333333 401.3,45.3 C399.166667,46.8333333 398.1,49.1333333 398.1,52.2 C398.1,54.2666667 398.733333,55.9333333 400,57.2 C401.2,58.4666667 402.766667,59.1 404.7,59.1 C406.766667,59.1 408.766667,58.5 410.7,57.3 C412.633333,56.1 414.466667,54.3333333 416.2,52 L416.1,42.7 L416.2,40.6 Z"></path>
                        <path d="M447.2,31.9 C448.333333,30.8333333 449.566667,29.4333333 450.9,27.7 C452.5,25.6333333 453.966667,24.2333333 455.3,23.5 C456.7,22.7666667 458.133333,22.4 459.6,22.4 C461.133333,22.4 462.333333,22.5666667 463.2,22.9 C463.533333,23.1 463.7,23.3666667 463.7,23.7 L463.7,24.1 C463.233333,26.4333333 462.966667,29.6333333 462.9,33.7 L461,33.7 C460.4,32.3 459.666667,31.3 458.8,30.7 C457.866667,30.1 456.8,29.8 455.6,29.8 C453.933333,29.8 452.4,30.3666667 451,31.5 C449.533333,32.6333333 448.566667,34.2 448.1,36.2 C447.633333,38.2 447.4,42.1666667 447.4,48.1 C447.4,52.0333333 447.566667,55.3333333 447.9,58 C447.966667,59 448.233333,59.6333333 448.7,59.9 C449.766667,60.5 451.333333,60.8 453.4,60.8 L456,60.8 L456,63.2 C451.666667,63 447.566667,62.9 443.7,62.9 C439.966667,62.9 436.266667,63 432.6,63.2 L432.6,60.8 L436.7,60.4 C438.1,60.3333333 439,60.0666667 439.4,59.6 C439.8,59.2 440.033333,57.8333333 440.1,55.5 C440.3,51.4333333 440.4,46.6333333 440.4,41.1 C440.4,34.3 440.133333,30.3 439.6,29.1 C439.266667,28.3666667 438.133333,28 436.2,28 L432.6,28 L432.6,25.5 C435.333333,25.2333333 437.766667,24.8333333 439.9,24.3 C442.033333,23.8333333 443.933333,23.2 445.6,22.4 C446,22.2666667 446.333333,22.2 446.6,22.2 C446.933333,22.2 447.133333,22.2666667 447.2,22.4 C447.333333,22.6 447.4,23 447.4,23.6 L447.2,31.9 Z" fill-rule="nonzero"></path>
                        <path d="M481.7,29.9 L487.3,24.9 C488.233333,24.0333333 489.2,23.4333333 490.2,23.1 C491.666667,22.6333333 493.1,22.4 494.5,22.4 C497.7,22.4 500.266667,22.9666667 502.2,24.1 C504.133333,25.2333333 505.9,27.2666667 507.5,30.2 L513,25.2 C513.933333,24.4 515.066667,23.7666667 516.4,23.3 C518.2,22.7 519.933333,22.4 521.6,22.4 C524.133333,22.4 526.433333,22.9666667 528.5,24.1 C530.566667,25.3 532.1,26.8333333 533.1,28.7 C534.1,30.6333333 534.6,33.2 534.6,36.4 L534.4,53 C534.4,56.6666667 534.6,58.8333333 535,59.5 C535.466667,60.1666667 536.566667,60.5333333 538.3,60.6 L541.4,60.8 L541.4,63.2 L539.4,63.1 C536.066667,62.9666667 533.833333,62.9 532.7,62.9 C530.9,62.9 528.8,63 526.4,63.2 C526.8,58 527,51.9 527,44.9 C527,39.0333333 526.766667,35.1666667 526.3,33.3 C525.766667,31.4333333 524.8,30 523.4,29 C521.933333,27.9333333 520.133333,27.4 518,27.4 C515.533333,27.4 513.433333,28.0666667 511.7,29.4 C509.966667,30.7333333 508.866667,32.3 508.4,34.1 C508.133333,35.3 508,40.3333333 508,49.2 C508,54.4 508.066667,57.3666667 508.2,58.1 C508.266667,58.8333333 508.466667,59.3333333 508.8,59.6 C509.2,59.9333333 510.433333,60.2 512.5,60.4 L515.3,60.8 L515.3,63.2 C510.366667,63 506.7,62.9 504.3,62.9 C502.5,62.9 498.9,63 493.5,63.2 L493.5,60.8 L496.4,60.8 C498.066667,60.8 499.166667,60.5333333 499.7,60 C500.166667,59.5333333 500.433333,58.4333333 500.5,56.7 C500.766667,52.0333333 500.9,47.2 500.9,42.2 C500.9,37.7333333 500.6,34.6333333 500,32.9 C499.4,31.2333333 498.366667,29.9 496.9,28.9 C495.433333,27.9 493.7,27.4 491.7,27.4 C489.5,27.4 487.533333,28 485.8,29.2 C484,30.4 482.766667,31.8666667 482.1,33.6 C481.7,34.8 481.5,38.1666667 481.5,43.7 C481.5,49.7666667 481.566667,54.2 481.7,57 C481.7,58.3333333 481.9,59.2 482.3,59.6 C482.633333,59.9333333 483.833333,60.2 485.9,60.4 L488.8,60.8 L488.8,63.2 C485.333333,63 482.033333,62.9 478.9,62.9 C475.366667,62.9 471.5,63 467.3,63.2 L467.3,60.8 L470.5,60.8 C472.366667,60.8 473.466667,60.3 473.8,59.3 C474.2,58.3 474.4,53 474.4,43.4 C474.4,36.3333333 474.333333,32.1666667 474.2,30.9 C474.133333,29.6333333 473.9,28.8333333 473.5,28.5 C473.1,28.1666667 471.9,28 469.9,28 L467.3,28 L467.3,25.7 C471.433333,25.1 475,24.3 478,23.3 L481.1,22.2 C481.566667,22.2 481.8,22.5333333 481.8,23.2 L481.7,24.7 C481.633333,26.2333333 481.633333,27.9666667 481.7,29.9 Z" fill-rule="nonzero"></path>
                        <path d="M547.8,33.9 L547.9,31 L547.8,28.1 L552.4,25.5 C554.533333,24.3 556.366667,23.4666667 557.9,23 C559.433333,22.6 561.1,22.4 562.9,22.4 C566.766667,22.4 569.9,23.2666667 572.3,25 C574.7,26.7333333 576.133333,28.9333333 576.6,31.6 C576.933333,33.6666667 577.133333,38.7 577.2,46.7 C577.266667,54.3 577.433333,58.4666667 577.7,59.2 C578.033333,60 578.733333,60.4 579.8,60.4 L583.1,60.4 L583.1,63.2 C579.9,63 577.666667,62.9 576.4,62.9 C574.866667,62.9 572.766667,63 570.1,63.2 L570.1,59.5 C570.1,58.2333333 570.1,57 570.1,55.8 L561.3,62.5 C560.566667,63.0333333 559.8,63.4333333 559,63.7 C558.266667,63.9666667 557.2,64.1 555.8,64.1 C552.2,64.1 549.433333,63.2 547.5,61.4 C545.633333,59.6 544.7,57.2 544.7,54.2 C544.7,51.3333333 545.366667,48.8333333 546.7,46.7 C548.1,44.6333333 550.033333,43.0666667 552.5,42 C555.033333,41 560.9,39.7 570.1,38.1 C570.033333,34.5 569.233333,31.8333333 567.7,30.1 C565.766667,27.8333333 563.033333,26.7 559.5,26.7 C558.166667,26.7 556.9,26.8666667 555.7,27.2 C554.5,27.5333333 553.4,28.0333333 552.4,28.7 C551.6,30.7 550.866667,32.6333333 550.2,34.5 L547.8,33.9 Z M570.1,40.6 C562.233333,42.2666667 557.233333,43.8333333 555.1,45.3 C553.033333,46.8333333 552,49.1333333 552,52.2 C552,54.2666667 552.6,55.9333333 553.8,57.2 C555,58.4666667 556.566667,59.1 558.5,59.1 C560.566667,59.1 562.566667,58.5 564.5,57.3 C566.433333,56.1 568.3,54.3333333 570.1,52 L570,42.7 L570.1,40.6 Z"></path>
                        <path d="M619.3,57.2 L620.4,58.2 L618.7,60.9 C616.766667,61.9666667 614.8,62.7666667 612.8,63.3 C610.733333,63.8333333 608.633333,64.1 606.5,64.1 C602.366667,64.1 598.866667,63.3 596,61.7 C593.133333,60.1 590.9,57.8333333 589.3,54.9 C587.7,51.9 586.9,48.3333333 586.9,44.2 C586.9,40.6 587.533333,37.4333333 588.8,34.7 C590,32.0333333 591.7,29.9333333 593.9,28.4 C596.033333,26.8666667 598.733333,25.3666667 602,23.9 C604.333333,22.9 606.933333,22.4 609.8,22.4 C611.933333,22.4 613.8,22.5666667 615.4,22.9 C616.933333,23.2333333 618.6,23.8666667 620.4,24.8 C619.666667,28.5333333 619.3,32.2666667 619.3,36 L616.6,36 L616.6,33.9 C616.6,32.0333333 616.333333,30.7333333 615.8,30 C615.266667,29.2666667 614.066667,28.5333333 612.2,27.8 C610.4,27.0666667 608.4,26.7 606.2,26.7 C602.4,26.7 599.466667,27.8666667 597.4,30.2 C595.333333,32.5333333 594.3,36 594.3,40.6 C594.3,46.5333333 595.833333,51.3 598.9,54.9 C601.633333,58.1 605.133333,59.7 609.4,59.7 C611.133333,59.7 612.8,59.5 614.4,59.1 C616.066667,58.6333333 617.7,58 619.3,57.2 L619.3,57.2 Z" fill-rule="nonzero"></path>
                        <path d="M625.6,85.9 L627.6,79.3 L628.6,79.3 C629.333333,80.1666667 630.1,80.8333333 630.9,81.3 C631.633333,81.7666667 632.4,82 633.2,82 C634.933333,82 636.533333,81.1666667 638,79.5 C639.4,77.7666667 641.6,73.0333333 644.6,65.3 C643.4,62.0333333 640.933333,55.8 637.2,46.6 L633.3,37 L630.1,29.6 C629.1,27 627.633333,25.7 625.7,25.7 L624,25.7 L624,23.2 C626.933333,23.4 629.5,23.5 631.7,23.5 C633.5,23.5 637.566667,23.4 643.9,23.2 L643.9,25.7 L640.8,25.7 C639.733333,25.7 638.966667,25.8666667 638.5,26.2 C637.966667,26.6 637.7,27.0666667 637.7,27.6 C637.7,28 637.966667,28.9666667 638.5,30.5 C641.366667,38.3 644.733333,46.6666667 648.6,55.6 C652.333333,47.4 655.566667,39.5 658.3,31.9 C659.1,29.7 659.5,28.3666667 659.5,27.9 C659.5,26.9666667 658.566667,26.3666667 656.7,26.1 L653.5,25.7 L653.5,23.2 C656.833333,23.4 659.8,23.5 662.4,23.5 C664.866667,23.5 667.333333,23.4 669.8,23.2 L669.8,25.7 L668.3,25.7 C667.633333,25.7 666.966667,25.8666667 666.3,26.2 C665.633333,26.6 665.1,27.1333333 664.7,27.8 C663.766667,29.2666667 661.166667,34.7333333 656.9,44.2 C655.7,46.8666667 652.666667,53.9666667 647.8,65.5 C643.533333,75.2333333 641.1,80.5666667 640.5,81.5 C639.433333,83.3666667 638.033333,84.8 636.3,85.8 C634.566667,86.8 632.733333,87.3 630.8,87.3 C629.933333,87.3 629.066667,87.2 628.2,87 C627.4,86.7333333 626.533333,86.3666667 625.6,85.9 Z" fill-rule="nonzero"></path>
                    </g>
                </g>
            </g>
            <g id="&lt;Group&gt;" transform="translate(191.0769, 48.4922)" fill-rule="nonzero">
                <path d="M617.823113,371.307813 C617.823113,280.207813 572.523113,221.207813 469.123113,221.207813 L291.523113,221.207813 C291.523113,271.007813 331.923113,311.307813 381.723113,311.307813 L471.823113,311.307813 C516.723113,311.307813 537.723113,334.707813 537.723113,370.407813 C537.723113,406.107813 515.823113,429.407813 469.623113,429.407813 L424.023113,429.407813 L371.923113,519.607813 L471.423113,519.607813 C571.623113,519.607813 617.823113,462.307813 617.823113,371.307813 Z" id="&lt;Path&gt;" fill="url(#radialGradient-1)"></path>
                <path d="M291.523113,221.207813 C291.523113,271.007813 331.923113,311.307813 381.723113,311.307813 L410.523113,311.307813 L471.823113,311.307813 C492.823113,311.307813 515.123113,311.307813 531.523113,311.307813 C572.523113,311.307813 615.523113,334.807813 617.223113,380.007813 C617.323113,377.007813 617.823113,374.307813 617.823113,371.307813 C617.823113,280.207813 572.523113,221.207813 469.123113,221.207813 L291.523113,221.207813 Z" id="&lt;Path&gt;" fill="url(#radialGradient-2)"></path>
                <path d="M141.223113,26.207813 C62.4231133,71.807813 33.9231133,140.507813 85.6231133,230.107813 L174.423113,383.807813 C217.523113,359.007813 232.323113,303.807813 207.423113,260.707813 L162.323113,182.607813 C139.923113,143.807813 149.623113,113.907813 180.523113,96.007813 C211.423113,78.207813 242.623113,85.607813 265.723113,125.607813 L288.523113,165.107813 L392.623113,165.107813 L342.823113,78.907813 C292.723113,-7.892187 220.123113,-19.292187 141.223113,26.207813 L141.223113,26.207813 Z" id="&lt;Path&gt;" fill="url(#radialGradient-3)"></path>
                <path d="M174.423113,383.807813 C217.523113,359.007813 232.323113,303.807813 207.423113,260.707813 L192.923113,235.707813 L162.323113,182.607813 C151.823113,164.507813 140.723113,145.207813 132.423113,130.907813 C112.023113,95.507813 110.823113,46.507813 149.023113,22.407813 C146.423113,23.807813 143.923113,24.707813 141.223113,26.207813 C62.4231133,71.807813 33.9231133,140.507813 85.6231133,230.107813 L174.423113,383.807813 Z" id="&lt;Path&gt;" fill="url(#radialGradient-4)"></path>
                <path d="M80.7231133,611.507813 C159.623113,657.007813 233.323113,647.307813 285.023113,557.807813 L373.823113,404.007813 C330.723113,379.107813 275.623113,393.907813 250.723113,437.007813 L205.623113,515.107813 C183.223113,553.907813 152.423113,560.507813 121.523113,542.607813 C90.6231133,524.807813 81.4231133,494.107813 104.523113,454.007813 L127.323113,414.607813 L75.2231133,324.407813 L25.5231133,410.607813 C-24.5768867,497.307813 1.82311328,566.007813 80.7231133,611.507813 L80.7231133,611.507813 Z" id="&lt;Path&gt;" fill="url(#radialGradient-5)"></path>
                <path d="M373.823113,404.007813 C330.723113,379.107813 275.623113,393.907813 250.723113,437.007813 L236.323113,462.007813 L205.623113,515.107813 C195.123113,533.207813 184.023113,552.507813 175.823113,566.807813 C155.323113,602.207813 113.423113,627.807813 73.5231133,606.707813 C76.0231133,608.207813 78.1231133,610.007813 80.7231133,611.507813 C159.623113,657.007813 233.323113,647.307813 285.023113,557.807813 L373.823113,404.007813 Z" id="&lt;Path&gt;" fill="url(#radialGradient-6)"></path>
            </g>
        </g>
    </g>
</svg>